<svg xmlns="http://www.w3.org/2000/svg" viewBox="0 0 100 100"><defs><style>.cls-1{fill:none;stroke:#000;stroke-linecap:round;stroke-linejoin:round;stroke-width:7px;}</style></defs><title>copy_link</title><g id="Layer_19" data-name="Layer 19"><path class="cls-1" d="M74,46.51l5-5a13.46,13.46,0,0,0,0-19L76.61,20a13.46,13.46,0,0,0-19,0L44.05,33.55a13.46,13.46,0,0,0,0,19l2.53,2.53"/><path class="cls-1" d="M28.92,48.69l-5,5a13.46,13.46,0,0,0,0,19l2.39,2.39a13.46,13.46,0,0,0,19,0L58.83,61.64a13.46,13.46,0,0,0,0-19L56.3,40.07"/></g></svg>