<svg width="23" height="23" viewBox="0 0 23 23" fill="none" xmlns="http://www.w3.org/2000/svg">
<g clip-path="url(#clip0_594_807)">
<path d="M11.5 23C17.8513 23 23 17.8513 23 11.5C23 5.14872 17.8513 0 11.5 0C5.14873 0 0 5.14872 0 11.5C0 17.8513 5.14873 23 11.5 23Z" fill="#212727"/>
<path fill-rule="evenodd" clip-rule="evenodd" d="M11.833 5C7.95519 5 6 7.73928 6 10.0236C6 11.4065 6.53152 12.6372 7.6714 13.0954C7.85831 13.1706 8.02574 13.0979 8.07993 12.8941C8.11764 12.7528 8.20695 12.3966 8.24643 12.2483C8.30103 12.0466 8.27969 11.9761 8.12873 11.8003C7.80019 11.4183 7.59017 10.9239 7.59017 10.2234C7.59017 8.1908 9.13363 6.37162 11.6087 6.37162C13.8006 6.37162 15.0048 7.69159 15.0048 9.45342C15.0048 11.7723 13.9631 13.7293 12.4174 13.7293C11.5635 13.7293 10.9245 13.0332 11.1292 12.1801C11.3743 11.1615 11.8499 10.0616 11.8499 9.32664C11.8499 8.6686 11.4911 8.11948 10.7491 8.11948C9.87609 8.11948 9.17497 9.00895 9.17497 10.2008C9.17497 10.9598 9.43513 11.4735 9.43513 11.4735C9.43513 11.4735 8.54171 15.2024 8.38547 15.8556C8.07371 17.1564 8.33885 18.7506 8.36102 18.9116C8.37428 19.0071 8.49861 19.0298 8.55508 18.9571C8.63538 18.8539 9.67498 17.589 10.0284 16.3255C10.1283 15.968 10.6026 14.1152 10.6026 14.1152C10.8859 14.6481 11.7149 15.1176 12.5963 15.1176C15.2202 15.1176 17 12.7606 17 9.60573C17 7.22127 14.9498 5 11.833 5Z" fill="white"/>
</g>
<defs>
<clipPath id="clip0_594_807">
<rect width="23" height="23" fill="white"/>
</clipPath>
</defs>
</svg>
