<svg width="23" height="23" viewBox="0 0 23 23" fill="none" xmlns="http://www.w3.org/2000/svg">
<g clip-path="url(#clip0_594_810)">
<path fill-rule="evenodd" clip-rule="evenodd" d="M14.1723 8.39312L14.1721 8.76321H14.1715V13.7382C14.1715 14.9243 13.7043 16.0524 12.8658 16.891C12.0271 17.7296 10.8989 18.1966 9.71319 18.1966C8.52713 18.1966 7.39922 17.7296 6.56062 16.891C5.72203 16.0524 5.25475 14.9243 5.25475 13.7382C5.25475 12.5521 5.72203 11.4243 6.56062 10.5857C7.39922 9.74707 8.52713 9.27987 9.71319 9.27987H10.5405V11.6236H9.71319C9.15011 11.6236 8.61592 11.8449 8.21769 12.2431C7.81962 12.6412 7.59852 13.1752 7.59852 13.7382C7.59852 14.3013 7.81962 14.8354 8.21769 15.2336C8.61592 15.6315 9.15011 15.853 9.71319 15.853C10.2762 15.853 10.8104 15.6315 11.2086 15.2336C11.6065 14.8354 11.8278 14.3015 11.8278 13.7431V4.80349H14.1618L14.2787 5.01987C14.6421 5.69337 15.1322 6.33182 15.7401 6.80298C16.2101 7.16736 16.7421 7.42443 17.3297 7.52747L17.7452 7.60033L17.2994 9.85986L16.9001 9.78853C16.4247 9.70355 15.9578 9.55935 15.5206 9.35327C15.0189 9.11662 14.5535 8.79721 14.1723 8.39312ZM11.5001 -8.37181e-07C5.14866 -8.37181e-07 0 5.14859 0 11.5C0 17.8512 5.14866 23 11.5001 23C17.8514 23 23 17.8512 23 11.5C23 5.14859 17.8514 -8.37181e-07 11.5001 -8.37181e-07Z" fill="#212727"/>
</g>
<defs>
<clipPath id="clip0_594_810">
<rect width="23" height="23" fill="white"/>
</clipPath>
</defs>
</svg>
