<svg width="23" height="23" viewBox="0 0 23 23" fill="none" xmlns="http://www.w3.org/2000/svg">
<g clip-path="url(#clip0_594_820)">
<path d="M11.5 23C17.8513 23 23 17.8513 23 11.5C23 5.14872 17.8513 0 11.5 0C5.14873 0 0 5.14872 0 11.5C0 17.8513 5.14873 23 11.5 23Z" fill="#212727"/>
<path d="M19 7.42188C18.4748 7.66636 17.9192 7.82743 17.3506 7.9C17.9482 7.52512 18.3975 6.92955 18.6144 6.225C18.0495 6.57894 17.4325 6.82727 16.7898 6.95938C16.5191 6.65548 16.1936 6.41372 15.8331 6.2488C15.4725 6.08388 15.0844 5.99923 14.6924 6.00001C13.1051 6.00001 11.8206 7.35625 11.8206 9.02812C11.8195 9.26067 11.8444 9.49253 11.8947 9.71874C10.7565 9.66158 9.64203 9.35049 8.6225 8.80539C7.60296 8.26029 6.70085 7.49318 5.97387 6.55313C5.71883 7.01379 5.58396 7.53939 5.58333 8.075C5.58333 9.125 6.09463 10.0531 6.86667 10.5969C6.40925 10.5852 5.96121 10.4555 5.56058 10.2187V10.2562C5.56058 11.725 6.55225 12.9469 7.86475 13.225C7.61794 13.2955 7.3636 13.3312 7.10817 13.3312C6.92692 13.3316 6.74608 13.3127 6.56829 13.275C6.93317 14.4781 7.99513 15.3531 9.25308 15.3781C8.2309 16.2221 6.97593 16.6783 5.68542 16.675C5.45635 16.6746 5.22749 16.66 5 16.6312C6.31284 17.5294 7.83892 18.0045 9.39658 18C14.6863 18 17.5761 13.3844 17.5761 9.38124C17.5761 9.25 17.5729 9.11875 17.567 8.99062C18.1279 8.56314 18.6132 8.03191 19 7.42188V7.42188Z" fill="white"/>
</g>
<defs>
<clipPath id="clip0_594_820">
<rect width="23" height="23" fill="white"/>
</clipPath>
</defs>
</svg>
