<svg width="474" height="112" xmlns="http://www.w3.org/2000/svg">

 <g>
  <title>background</title>
  <rect fill="none" id="canvas_background" height="402" width="582" y="-1" x="-1"/>
 </g>
 <g>
  <title>Layer 1</title>
  <g id="svg_1">
   <path fill="#ffffff" id="svg_2" d="m176.5,25.7c-4.6,0 -8.7,0.8 -12.5,2.3c-3.7,1.5 -7,3.6 -9.7,6.3c-2.7,2.7 -4.8,5.9 -6.3,9.6c-1.5,3.7 -2.3,7.8 -2.3,12.3c0,4.5 0.7,8.6 2.2,12.3c1.5,3.7 3.5,6.9 6.1,9.6c2.6,2.7 5.8,4.7 9.5,6.2s7.8,2.2 12.4,2.2c4.9,0 9.2,-0.8 12.9,-2.4l-4.3,-11.6c-2.4,1.2 -5.3,1.9 -8.5,1.9c-2.5,0 -4.8,-0.4 -6.9,-1.3c-2.1,-0.8 -4,-2.1 -5.5,-3.7c-1.5,-1.6 -2.8,-3.5 -3.7,-5.7c-0.9,-2.2 -1.3,-4.8 -1.3,-7.5c0,-2.8 0.4,-5.3 1.3,-7.5c0.9,-2.2 2.1,-4.2 3.7,-5.7c1.5,-1.6 3.4,-2.8 5.6,-3.7c2.2,-0.8 4.5,-1.3 7,-1.3c3.1,0 5.8,0.6 8.1,1.7s4.4,2.6 6.1,4.4l7.5,-9.9c-2.6,-2.6 -5.7,-4.7 -9.3,-6.2c-3.5,-1.5 -7.6,-2.3 -12.1,-2.3z"/>
   <path fill="#ffffff" id="svg_3" d="m129,34.3c-2.7,-2.7 -6,-4.8 -9.7,-6.3c-3.7,-1.5 -7.8,-2.3 -12.2,-2.3s-8.5,0.8 -12.2,2.3c-3.7,1.5 -7,3.6 -9.7,6.3c-2.7,2.7 -4.9,5.9 -6.4,9.6c-1.5,3.7 -2.3,7.8 -2.3,12.2s0.8,8.5 2.3,12.2c1.5,3.7 3.7,7 6.4,9.6c2.7,2.7 6,4.8 9.7,6.3c3.7,1.5 7.8,2.3 12.2,2.3s8.5,-0.8 12.2,-2.3c3.7,-1.5 7,-3.6 9.7,-6.3c2.7,-2.7 4.9,-5.9 6.4,-9.6c1.5,-3.7 2.3,-7.8 2.3,-12.2s-0.8,-8.5 -2.3,-12.2c-1.5,-3.8 -3.6,-7 -6.4,-9.6zm-5.4,29.2c-0.9,2.2 -2.1,4.2 -3.7,5.7c-1.6,1.6 -3.5,2.8 -5.6,3.7c-2.2,0.9 -4.6,1.3 -7.2,1.3c-2.6,0 -5,-0.4 -7.2,-1.3c-2.2,-0.9 -4,-2.1 -5.6,-3.7c-1.6,-1.6 -2.8,-3.5 -3.7,-5.7c-0.9,-2.2 -1.3,-4.7 -1.3,-7.4c0,-2.7 0.4,-5.2 1.3,-7.4c0.9,-2.2 2.1,-4.2 3.7,-5.7c1.6,-1.6 3.5,-2.8 5.6,-3.7c2.2,-0.9 4.6,-1.3 7.2,-1.3c2.6,0 5,0.4 7.2,1.3c2.2,0.9 4,2.1 5.6,3.7c1.6,1.6 2.8,3.5 3.7,5.7c0.9,2.2 1.3,4.7 1.3,7.4c0,2.7 -0.4,5.2 -1.3,7.4z"/>
   <polygon fill="#ffffff" id="svg_4" points="240.4,27.1 216.5,52.4 216.5,6.6 204,4 204,85.1 216.5,85.1 216.5,68.2 221.5,63.2 241.2,85.1 257.5,85.1    229.9,54.8 257.5,27.1  "/>
   <path fill="#ffffff" id="svg_5" d="m403.5,37.8l-0.9,-10.7l-14.4,0l0,-15.5l-12.5,0l0,15.5l-12,0l1.5,10.7l10.5,0l0,30.4c0,6.4 1.4,10.9 4.2,13.6c2.8,2.6 6.9,3.9 12.2,3.9c3.8,0 5.6,-0.2 9.3,-1.3l-2.7,-11.1c-1.3,0.2 -2.7,0.2 -4.2,0.2c-2.2,0 -3.8,-0.5 -4.8,-1.6c-1,-1 -1.4,-2.6 -1.4,-4.6l0,-29.5l15.2,0z"/>
   <polygon fill="#ffffff" id="svg_6" points="457.8,27.1 441.6,62.6 424.9,27.1 410,27.1 435,77.1 420.7,108.3 434,108.3 471.1,27.1  "/>
   <path fill="#ffffff" id="svg_7" d="m337.8,33.5l0,-6.3l-12.1,0l0,57.9l12.5,0l0,-26.6c0,-6.2 1.2,-11 3.6,-14.4c2.4,-3.4 6.5,-5.2 12.3,-5.2c1.2,0 2.3,0.1 3.3,0.2l-2.5,-12c-4.1,0.1 -14.8,0.1 -17.1,6.4z"/>
   <path fill="#ffffff" id="svg_8" d="m309.9,34.3c-2.4,-2.7 -5.4,-4.8 -8.9,-6.3c-3.5,-1.5 -7.5,-2.3 -12,-2.3c-4.5,0 -8.5,0.8 -12.1,2.4c-3.6,1.6 -6.6,3.8 -9.2,6.5c-2.5,2.8 -4.4,6 -5.8,9.7c-1.4,3.7 -2,7.7 -2,11.9c0,4.5 0.7,8.6 2.1,12.2c1.4,3.7 3.4,6.8 6,9.5c2.6,2.7 5.8,4.7 9.5,6.2c3.7,1.5 7.9,2.2 12.6,2.2c5.5,0 10.1,-0.9 13.9,-2.8l-3.9,-11.1c-2.9,1.5 -6.2,2.2 -10.1,2.2c-2.1,0 -4.1,-0.3 -6.1,-0.9c-2,-0.6 -3.7,-1.5 -5.3,-2.7c-1.6,-1.2 -2.9,-2.7 -3.9,-4.6c-1,-1.9 -1.7,-4 -2,-6.5l0,-0.1l44.5,0l0,-3.6c0,-4.5 -0.6,-8.6 -1.9,-12.3c-1.2,-3.6 -3,-6.9 -5.4,-9.6zm-37.1,16.1c0.8,-4.2 2.5,-7.5 5.1,-9.9c2.6,-2.4 6.3,-3.7 10.9,-3.7c4.6,0 8.1,1.3 10.5,3.8c2.4,2.5 3.8,5.8 4.2,9.8l-30.7,0z"/>
   <polygon fill="#ffffff" id="svg_9" points="54.9,41 15.5,35.1 15.5,3.7 2.9,3.7 2.9,3.9 2.9,83.4 14.7,83.4 14.7,83.3 15.5,83.3 15.5,48.5 54.9,54.9    54.9,83.3 55.4,83.3 55.4,83.4 67.5,83.4 67.5,83.3 67.5,3.9 67.5,3.7 54.9,3.7  "/>
  </g>
 </g>
</svg>