<svg xmlns="http://www.w3.org/2000/svg" viewBox="0 0 474 112"><path d="M176.5 25.7c-4.6 0-8.7 0.8-12.5 2.3 -3.7 1.5-7 3.6-9.7 6.3 -2.7 2.7-4.8 5.9-6.3 9.6 -1.5 3.7-2.3 7.8-2.3 12.3 0 4.5 0.7 8.6 2.2 12.3 1.5 3.7 3.5 6.9 6.1 9.6 2.6 2.7 5.8 4.7 9.5 6.2s7.8 2.2 12.4 2.2c4.9 0 9.2-0.8 12.9-2.4l-4.3-11.6c-2.4 1.2-5.3 1.9-8.5 1.9 -2.5 0-4.8-0.4-6.9-1.3 -2.1-0.8-4-2.1-5.5-3.7 -1.5-1.6-2.8-3.5-3.7-5.7 -0.9-2.2-1.3-4.8-1.3-7.5 0-2.8 0.4-5.3 1.3-7.5 0.9-2.2 2.1-4.2 3.7-5.7 1.5-1.6 3.4-2.8 5.6-3.7 2.2-0.8 4.5-1.3 7-1.3 3.1 0 5.8 0.6 8.1 1.7s4.4 2.6 6.1 4.4l7.5-9.9c-2.6-2.6-5.7-4.7-9.3-6.2C185.1 26.5 181 25.7 176.5 25.7z"/><path d="M129 34.3c-2.7-2.7-6-4.8-9.7-6.3 -3.7-1.5-7.8-2.3-12.2-2.3s-8.5 0.8-12.2 2.3c-3.7 1.5-7 3.6-9.7 6.3 -2.7 2.7-4.9 5.9-6.4 9.6 -1.5 3.7-2.3 7.8-2.3 12.2s0.8 8.5 2.3 12.2c1.5 3.7 3.7 7 6.4 9.6 2.7 2.7 6 4.8 9.7 6.3 3.7 1.5 7.8 2.3 12.2 2.3s8.5-0.8 12.2-2.3c3.7-1.5 7-3.6 9.7-6.3 2.7-2.7 4.9-5.9 6.4-9.6 1.5-3.7 2.3-7.8 2.3-12.2s-0.8-8.5-2.3-12.2C133.9 40.1 131.8 36.9 129 34.3zM123.6 63.5c-0.9 2.2-2.1 4.2-3.7 5.7 -1.6 1.6-3.5 2.8-5.6 3.7 -2.2 0.9-4.6 1.3-7.2 1.3 -2.6 0-5-0.4-7.2-1.3 -2.2-0.9-4-2.1-5.6-3.7 -1.6-1.6-2.8-3.5-3.7-5.7 -0.9-2.2-1.3-4.7-1.3-7.4 0-2.7 0.4-5.2 1.3-7.4 0.9-2.2 2.1-4.2 3.7-5.7 1.6-1.6 3.5-2.8 5.6-3.7 2.2-0.9 4.6-1.3 7.2-1.3 2.6 0 5 0.4 7.2 1.3 2.2 0.9 4 2.1 5.6 3.7 1.6 1.6 2.8 3.5 3.7 5.7 0.9 2.2 1.3 4.7 1.3 7.4C124.9 58.8 124.5 61.3 123.6 63.5z"/><polygon points="240.4 27.1 216.5 52.4 216.5 6.6 204 4 204 85.1 216.5 85.1 216.5 68.2 221.5 63.2 241.2 85.1 257.5 85.1 229.9 54.8 257.5 27.1 "/><path d="M403.5 37.8l-0.9-10.7h-14.4V11.6h-12.5v15.5h-12l1.5 10.7h10.5v30.4c0 6.4 1.4 10.9 4.2 13.6 2.8 2.6 6.9 3.9 12.2 3.9 3.8 0 5.6-0.2 9.3-1.3l-2.7-11.1c-1.3 0.2-2.7 0.2-4.2 0.2 -2.2 0-3.8-0.5-4.8-1.6 -1-1-1.4-2.6-1.4-4.6V37.8H403.5z"/><polygon points="457.8 27.1 441.6 62.6 424.9 27.1 410 27.1 435 77.1 420.7 108.3 434 108.3 471.1 27.1 "/><path d="M337.8 33.5v-6.3h-12.1v57.9h12.5V58.5c0-6.2 1.2-11 3.6-14.4 2.4-3.4 6.5-5.2 12.3-5.2 1.2 0 2.3 0.1 3.3 0.2l-2.5-12C350.8 27.2 340.1 27.2 337.8 33.5z"/><path d="M309.9 34.3c-2.4-2.7-5.4-4.8-8.9-6.3 -3.5-1.5-7.5-2.3-12-2.3 -4.5 0-8.5 0.8-12.1 2.4 -3.6 1.6-6.6 3.8-9.2 6.5 -2.5 2.8-4.4 6-5.8 9.7 -1.4 3.7-2 7.7-2 11.9 0 4.5 0.7 8.6 2.1 12.2 1.4 3.7 3.4 6.8 6 9.5 2.6 2.7 5.8 4.7 9.5 6.2 3.7 1.5 7.9 2.2 12.6 2.2 5.5 0 10.1-0.9 13.9-2.8l-3.9-11.1c-2.9 1.5-6.2 2.2-10.1 2.2 -2.1 0-4.1-0.3-6.1-0.9 -2-0.6-3.7-1.5-5.3-2.7 -1.6-1.2-2.9-2.7-3.9-4.6 -1-1.9-1.7-4-2-6.5v-0.1h44.5v-3.6c0-4.5-0.6-8.6-1.9-12.3C314.1 40.3 312.3 37 309.9 34.3zM272.8 50.4c0.8-4.2 2.5-7.5 5.1-9.9 2.6-2.4 6.3-3.7 10.9-3.7 4.6 0 8.1 1.3 10.5 3.8 2.4 2.5 3.8 5.8 4.2 9.8H272.8z"/><polygon points="54.9 41 15.5 35.1 15.5 3.7 2.9 3.7 2.9 3.9 2.9 83.4 14.7 83.4 14.7 83.3 15.5 83.3 15.5 48.5 54.9 54.9 54.9 83.3 55.4 83.3 55.4 83.4 67.5 83.4 67.5 83.3 67.5 3.9 67.5 3.7 54.9 3.7 "/></svg>