<?xml version="1.0" encoding="utf-8"?>
<!-- Generator: Adobe Illustrator 16.0.0, SVG Export Plug-In . SVG Version: 6.00 Build 0)  -->
<!DOCTYPE svg PUBLIC "-//W3C//DTD SVG 1.1//EN" "http://www.w3.org/Graphics/SVG/1.1/DTD/svg11.dtd">
<svg version="1.1" id="Capa_1" xmlns="http://www.w3.org/2000/svg" xmlns:xlink="http://www.w3.org/1999/xlink" x="0px" y="0px"
	 width="392.869px" height="55.762px" viewBox="0 0 392.869 55.762" enable-background="new 0 0 392.869 55.762"
	 xml:space="preserve">
<g>
	<path fill="#231F20" d="M17.061,32.648c-7.901,0.02-12.925,3.02-9.466,10.102c0.73,1.178,1.597,2.232,2.521,3.127
		c3.634,3.463,8.617,5.068,14.193,5.068c5.998,0,11.488-1.521,15.039-5.068c2.28-2.281,3.801-5.408,3.801-9.631
		c0-6.928-5.068-11.32-11.996-12.42c-4.309-0.676-5.407-0.76-9.377-1.268c-2.366-0.338-5.07-1.268-5.07-4.393
		c0-2.281,1.521-3.887,3.379-4.646c1.605-0.676,3.043-0.676,4.563-0.676c2.197,0,4.479,0.76,5.744,2.029
		c1.015,1.098,1.775,2.449,1.775,4.139h10.053c0-3.211-1.52-6.506-3.885-9.041C35.123,6.507,29.8,4.818,24.563,4.818
		c-5.49,0-10.139,1.605-13.35,4.393c-2.617,2.281-4.477,5.408-4.477,9.885c0,5.576,4.056,10.475,10.054,11.742
		c3.887,0.846,8.279,1.1,12.165,1.691c2.703,0.422,4.393,2.111,4.393,4.645c0,4.816-5.406,5.576-8.954,5.576
		C10.962,42.75,11.249,35.007,17.061,32.648z"/>
	<path fill="#231F20" d="M235.835,32.648c-7.9,0.02-12.924,3.02-9.465,10.102c0.73,1.178,1.596,2.232,2.52,3.127
		c3.635,3.463,8.619,5.068,14.193,5.068c5.998,0,11.488-1.521,15.039-5.068c2.279-2.281,3.801-5.408,3.801-9.631
		c0-6.928-5.068-11.32-11.996-12.42c-4.309-0.676-5.406-0.76-9.377-1.268c-2.367-0.338-5.07-1.268-5.07-4.393
		c0-2.281,1.521-3.887,3.379-4.646c1.605-0.676,3.043-0.676,4.564-0.676c2.195,0,4.477,0.76,5.742,2.029
		c1.014,1.098,1.775,2.449,1.775,4.139h10.053c0-3.211-1.52-6.506-3.885-9.041c-3.211-3.463-8.535-5.152-13.77-5.152
		c-5.492,0-10.139,1.605-13.35,4.393c-2.619,2.281-4.477,5.408-4.477,9.885c0,5.576,4.053,10.475,10.051,11.742
		c3.889,0.846,8.281,1.1,12.168,1.691c2.703,0.422,4.393,2.111,4.393,4.645c0,4.816-5.408,5.576-8.957,5.576
		C229.737,42.75,230.024,35.007,235.835,32.648z"/>
	<path fill="#231F20" d="M195.44,32.648c-7.902,0.02-12.924,3.02-9.467,10.102c0.73,1.178,1.596,2.232,2.521,3.127
		c3.633,3.463,8.615,5.068,14.193,5.068c5.998,0,11.49-1.521,15.039-5.068c2.281-2.281,3.801-5.408,3.801-9.631
		c0-6.928-5.07-11.32-11.998-12.42c-4.309-0.676-5.406-0.76-9.377-1.268c-2.363-0.338-5.068-1.268-5.068-4.393
		c0-2.281,1.52-3.887,3.379-4.646c1.605-0.676,3.043-0.676,4.561-0.676c2.197,0,4.48,0.76,5.746,2.029
		c1.014,1.098,1.773,2.449,1.773,4.139h10.055c0-3.211-1.521-6.506-3.885-9.041c-3.211-3.463-8.535-5.152-13.773-5.152
		c-5.49,0-10.137,1.605-13.348,4.393c-2.619,2.281-4.477,5.408-4.477,9.885c0,5.576,4.055,10.475,10.053,11.742
		c3.887,0.846,8.279,1.1,12.164,1.691c2.705,0.422,4.393,2.111,4.393,4.645c0,4.816-5.406,5.576-8.953,5.576
		C189.341,42.75,189.628,35.007,195.44,32.648z"/>
	<path fill="#231F20" d="M88.651,44.236c-1.664,0-3.239-1.582-3.239-3.719V5.916H74.852v23.232c0,3.551-0.677,7.52-3.211,9.885
		c-1.268,1.268-2.957,2.197-5.406,2.197c-5.576,0-7.604-3.211-7.604-8.365V5.916H48.07v29.316c0,9.377,5.829,15.713,15.207,15.713
		c5.576,0,10.476-2.533,12.588-6.842c0,3.371,4.455,6.264,7.81,6.264c8.264,0,7.62-7.727,7.62-7.727S90.734,44.236,88.651,44.236z"
		/>
	<path fill="#231F20" d="M386.374,42.894c0,0-0.563,1.594-2.646,1.594c-3.604,0-3.914-3.404-3.914-5.539V22.642
		c0-2.957-0.17-6.082-1.268-8.869c-2.533-6.59-8.955-8.955-16.473-8.955c-9.801,0-17.658,4.393-18.25,14.277h10.223
		c0.256-4.057,3.127-6.252,8.027-6.252c5.998,0,7.436,2.787,7.436,6.928v2.703l-12.928,0.93c-8.365,0.59-14.869,5.406-14.869,13.77
		c0,7.182,5.406,13.771,15.885,13.771c6.25,0,11.32-3.041,13.346-6.59c0,3.373,4.455,6.266,7.809,6.266
		C387.017,50.621,386.374,42.894,386.374,42.894z M369.509,32.359c0,6.504-4.648,10.053-11.238,10.053
		c-3.295,0-6.252-2.111-6.252-5.49c0-3.549,3.127-5.492,6.336-5.746l11.154-0.844V32.359z"/>
	<path fill="#231F20" d="M307.427,44.236c-1.666,0-3.24-1.582-3.24-3.719V5.916h-10.559v23.232c0,3.551-0.68,7.52-3.211,9.885
		c-1.27,1.268-2.959,2.197-5.408,2.197c-5.578,0-7.604-3.211-7.604-8.365V5.916h-10.561v29.316c0,9.377,5.83,15.713,15.207,15.713
		c5.576,0,10.477-2.533,12.59-6.842c0,3.371,4.455,6.264,7.809,6.264c8.262,0,7.619-7.727,7.619-7.727
		S309.509,44.236,307.427,44.236z"/>
	<path fill="#231F20" d="M340.024,8.464c-2.371-2.373-5.141-2.668-8.156-2.205c-4.125,0.664-5.992,2.123-7.641,6.246l-0.93-6.59
		h-8.957v43.932h10.645V27.712c0-6.24,3.012-11.105,8.793-12.189c2.342-0.508,4.012,0.383,4.793,1.336
		c1.318,1.613-0.107,5.619-0.107,5.619S345.866,14.308,340.024,8.464z"/>
	<path fill="#231F20" d="M160.376,44.076c-1.664,0-3.24-1.582-3.24-3.717V20.193c0-9.123-4.9-15.375-14.277-15.375
		c-5.913,0-10.644,2.619-13.263,7.182c-2.197-4.479-6.421-7.182-12.588-7.182c-5.83,0-10.054,2.873-12.504,6.928l-0.845-5.83h-8.787
		v43.932h10.477V25.853c0-5.49,2.703-11.826,8.701-11.826c5.322,0,6.759,3.125,6.759,8.531v27.289h10.476V25.853
		c0-5.49,2.62-11.826,8.617-11.826c5.322,0,6.758,3.125,6.758,8.531v21.545c0,3.371,2.643,6.105,8.186,6.105
		c8.266,0,8.174-7.727,8.174-7.727S162.46,44.076,160.376,44.076z"/>
	<path fill="#231F20" d="M179.958,44.005c-1.664,0-3.238-1.582-3.238-3.717V5.916h-10.73v38.188c0,3.371,2.643,6.105,8.186,6.105
		c8.264,0,8.428-7.797,8.428-7.797S182.042,44.005,179.958,44.005z"/>
</g>
</svg>
